<mxfile host="app.diagrams.net" modified="2021-10-19T05:54:09.297Z" agent="5.0 (Windows NT 10.0; Win64; x64) AppleWebKit/537.36 (KHTML, like Gecko) Chrome/94.0.4606.81 Safari/537.36" etag="qs0_YeeJLqF3-gaKgIq1" version="15.5.0" type="github">
  <diagram id="1hkE1A8PqurNm8b_YoaX" name="Page-1">
    <mxGraphModel dx="1944" dy="623" grid="1" gridSize="10" guides="1" tooltips="1" connect="1" arrows="1" fold="1" page="1" pageScale="1" pageWidth="827" pageHeight="1169" math="0" shadow="0">
      <root>
        <mxCell id="0" />
        <mxCell id="1" parent="0" />
        <mxCell id="X5quVsK-one5qznDVFgV-1" value="data_worker" style="rounded=1;whiteSpace=wrap;html=1;" vertex="1" parent="1">
          <mxGeometry x="-60" y="110" width="120" height="60" as="geometry" />
        </mxCell>
        <mxCell id="X5quVsK-one5qznDVFgV-15" value="" style="edgeStyle=orthogonalEdgeStyle;rounded=0;orthogonalLoop=1;jettySize=auto;html=1;" edge="1" parent="1" source="X5quVsK-one5qznDVFgV-2" target="X5quVsK-one5qznDVFgV-14">
          <mxGeometry relative="1" as="geometry" />
        </mxCell>
        <mxCell id="X5quVsK-one5qznDVFgV-2" value="workers" style="rounded=1;whiteSpace=wrap;html=1;" vertex="1" parent="1">
          <mxGeometry x="290" y="250" width="120" height="60" as="geometry" />
        </mxCell>
        <mxCell id="X5quVsK-one5qznDVFgV-13" style="edgeStyle=orthogonalEdgeStyle;rounded=0;orthogonalLoop=1;jettySize=auto;html=1;entryX=0.5;entryY=0;entryDx=0;entryDy=0;" edge="1" parent="1" source="X5quVsK-one5qznDVFgV-3" target="X5quVsK-one5qznDVFgV-2">
          <mxGeometry relative="1" as="geometry">
            <Array as="points">
              <mxPoint x="480" y="200" />
              <mxPoint x="350" y="200" />
            </Array>
          </mxGeometry>
        </mxCell>
        <mxCell id="X5quVsK-one5qznDVFgV-3" value="OccaiV3" style="whiteSpace=wrap;html=1;rounded=1;" vertex="1" parent="1">
          <mxGeometry x="420" y="120" width="120" height="60" as="geometry" />
        </mxCell>
        <mxCell id="X5quVsK-one5qznDVFgV-7" value="iterate" style="shape=step;perimeter=stepPerimeter;whiteSpace=wrap;html=1;fixedSize=1;rotation=0;" vertex="1" parent="1">
          <mxGeometry x="210" y="190" width="120" height="50" as="geometry" />
        </mxCell>
        <mxCell id="X5quVsK-one5qznDVFgV-9" value="OccaiV2" style="whiteSpace=wrap;html=1;rounded=1;" vertex="1" parent="1">
          <mxGeometry x="290" y="120" width="120" height="60" as="geometry" />
        </mxCell>
        <mxCell id="X5quVsK-one5qznDVFgV-10" value="OccaiV1" style="whiteSpace=wrap;html=1;rounded=1;" vertex="1" parent="1">
          <mxGeometry x="160" y="120" width="120" height="60" as="geometry" />
        </mxCell>
        <mxCell id="X5quVsK-one5qznDVFgV-17" value="" style="edgeStyle=orthogonalEdgeStyle;rounded=0;orthogonalLoop=1;jettySize=auto;html=1;" edge="1" parent="1" source="X5quVsK-one5qznDVFgV-14" target="X5quVsK-one5qznDVFgV-16">
          <mxGeometry relative="1" as="geometry" />
        </mxCell>
        <mxCell id="X5quVsK-one5qznDVFgV-14" value="throttle_futures" style="whiteSpace=wrap;html=1;rounded=1;" vertex="1" parent="1">
          <mxGeometry x="290" y="390" width="120" height="60" as="geometry" />
        </mxCell>
        <mxCell id="X5quVsK-one5qznDVFgV-16" value="publish_future" style="whiteSpace=wrap;html=1;rounded=1;" vertex="1" parent="1">
          <mxGeometry x="290" y="530" width="120" height="60" as="geometry" />
        </mxCell>
        <mxCell id="X5quVsK-one5qznDVFgV-18" value="producer.rs" style="whiteSpace=wrap;html=1;rounded=1;" vertex="1" parent="1">
          <mxGeometry x="630" y="110" width="120" height="60" as="geometry" />
        </mxCell>
      </root>
    </mxGraphModel>
  </diagram>
</mxfile>
